<?xml version="1.0" encoding="UTF-8" standalone="no"?>
<svg
   class="svglite"
   width="742.20447pt"
   height="232.88469pt"
   viewBox="0 0 742.20446 232.88468"
   version="1.1"
   id="svg15541"
   sodipodi:docname="fig4HighRes.svg"
   inkscape:export-filename="fig4HighRes.pdf"
   inkscape:export-xdpi="1000"
   inkscape:export-ydpi="1000"
   inkscape:version="1.3 (0e150ed, 2023-07-21)"
   xmlns:inkscape="http://www.inkscape.org/namespaces/inkscape"
   xmlns:sodipodi="http://sodipodi.sourceforge.net/DTD/sodipodi-0.dtd"
   xmlns="http://www.w3.org/2000/svg"
   xmlns:svg="http://www.w3.org/2000/svg">
  <sodipodi:namedview
     id="namedview15541"
     pagecolor="#ffffff"
     bordercolor="#000000"
     borderopacity="0.25"
     inkscape:showpageshadow="2"
     inkscape:pageopacity="0.0"
     inkscape:pagecheckerboard="0"
     inkscape:deskcolor="#d1d1d1"
     inkscape:document-units="pt"
     inkscape:zoom="1.4207675"
     inkscape:cx="495.15491"
     inkscape:cy="166.45933"
     inkscape:window-width="1512"
     inkscape:window-height="916"
     inkscape:window-x="0"
     inkscape:window-y="38"
     inkscape:window-maximized="0"
     inkscape:current-layer="svg15541"
     showguides="true">
    <sodipodi:guide
       position="-37.211161,110.08549"
       orientation="1,0"
       id="guide1"
       inkscape:locked="false" />
    <inkscape:page
       x="0"
       y="0"
       width="742.20447"
       height="232.88469"
       id="page1"
       margin="0 0 0"
       bleed="0"
       inkscape:export-filename="example..png"
       inkscape:export-xdpi="300"
       inkscape:export-ydpi="300" />
  </sodipodi:namedview>
  <defs
     id="defs1">
    <style
       type="text/css"
       id="style1"><![CDATA[
    .svglite line, .svglite polyline, .svglite polygon, .svglite path, .svglite rect, .svglite circle {
      fill: none;
      stroke: #000000;
      stroke-linecap: round;
      stroke-linejoin: round;
      stroke-miterlimit: 10.00;
    }
    .svglite text {
      white-space: pre;
    }
  ]]></style>
  </defs>
  <rect
     width="99.237152%"
     height="97.357697%"
     style="fill:#ffffff;stroke:none;stroke-width:0.982929"
     id="rect1"
     x="2.3616767e-08"
     y="8.2111438e-09" />
  <defs
     id="defs2">
    <clipPath
       id="cpMC4wMHw0NjguMDB8MC4wMHw1NzYuMDA=">
      <rect
         x="0"
         y="0"
         width="468"
         height="576"
         id="rect2" />
    </clipPath>
  </defs>
  <g
     clip-path="url(#cpMC4wMHw0NjguMDB8MC4wMHw1NzYuMDA=)"
     id="g2"
     transform="translate(274.30148,-0.90293514)" />
  <defs
     id="defs3">
    <clipPath
       id="cpMC4wMHwyMzQuMDB8MC4wMHw1NzYuMDA=">
      <rect
         x="0"
         y="0"
         width="234"
         height="576"
         id="rect3" />
    </clipPath>
  </defs>
  <g
     clip-path="url(#cpMC4wMHwyMzQuMDB8MC4wMHw1NzYuMDA=)"
     id="g3"
     transform="translate(274.30148,-0.90293514)" />
  <g
     clip-path="url(#cpMC4wMHw0NjguMDB8MC4wMHw1NzYuMDA=)"
     id="g4"
     transform="translate(274.30148,-0.90293514)" />
  <defs
     id="defs4">
    <clipPath
       id="cpMC4wMHwyMzQuMDB8MC4wMHwyODguMDA=">
      <rect
         x="0"
         y="0"
         width="234"
         height="288"
         id="rect4" />
    </clipPath>
  </defs>
  <g
     clip-path="url(#cpMC4wMHwyMzQuMDB8MC4wMHwyODguMDA=)"
     id="g5"
     transform="translate(274.30148,-0.90293514)" />
  <g
     clip-path="url(#cpMC4wMHw0NjguMDB8MC4wMHw1NzYuMDA=)"
     id="g6"
     transform="translate(274.30148,-0.90293514)" />
  <defs
     id="defs6">
    <clipPath
       id="cpMzYuNjB8MjI4LjUyfDIxLjEzfDIxNy44OQ==">
      <rect
         x="36.599998"
         y="21.129999"
         width="191.92"
         height="196.75999"
         id="rect6" />
    </clipPath>
  </defs>
  <defs
     id="defs2009">
    <clipPath
       id="cpMC4wMHwyMzQuMDB8Mjg4LjAwfDU3Ni4wMA==">
      <rect
         x="0"
         y="288"
         width="234"
         height="288"
         id="rect2009" />
    </clipPath>
  </defs>
  <g
     clip-path="url(#cpMC4wMHwyMzQuMDB8Mjg4LjAwfDU3Ni4wMA==)"
     id="g2010"
     transform="translate(274.30148,-0.90293514)" />
  <g
     clip-path="url(#cpMC4wMHw0NjguMDB8MC4wMHw1NzYuMDA=)"
     id="g2011"
     transform="translate(274.30148,-0.90293514)" />
  <defs
     id="defs2011">
    <clipPath
       id="cpMzYuNjB8MjI4LjUyfDMwNy40MHw0ODguNzg=">
      <rect
         x="36.599998"
         y="307.39999"
         width="191.92"
         height="181.38"
         id="rect2011" />
    </clipPath>
  </defs>
  <defs
     id="defs15418">
    <clipPath
       id="cpMjM0LjAwfDQ2OC4wMHwwLjAwfDU3Ni4wMA==">
      <rect
         x="234"
         y="0"
         width="234"
         height="576"
         id="rect15418" />
    </clipPath>
  </defs>
  <g
     clip-path="url(#cpMjM0LjAwfDQ2OC4wMHwwLjAwfDU3Ni4wMA==)"
     id="g15419"
     transform="translate(274.30148,-0.90293514)" />
  <g
     clip-path="url(#cpMC4wMHw0NjguMDB8MC4wMHw1NzYuMDA=)"
     id="g15420"
     transform="translate(274.30148,-0.90293514)" />
  <defs
     id="defs15420">
    <clipPath
       id="cpMjM0LjAwfDQ2OC4wMHwwLjAwfDE5Mi4wMA==">
      <rect
         x="234"
         y="0"
         width="234"
         height="192"
         id="rect15420" />
    </clipPath>
  </defs>
  <g
     clip-path="url(#cpMjM0LjAwfDQ2OC4wMHwwLjAwfDE5Mi4wMA==)"
     id="g15421"
     transform="translate(274.30148,-0.90293514)" />
  <g
     clip-path="url(#cpMC4wMHw0NjguMDB8MC4wMHw1NzYuMDA=)"
     id="g15422"
     transform="translate(274.30148,-0.90293514)" />
  <defs
     id="defs15422">
    <clipPath
       id="cpMjcwLjYwfDQ2Mi41MnwxOS40MHwxNDIuNTM=">
      <rect
         x="270.60001"
         y="19.4"
         width="191.92"
         height="123.13"
         id="rect15422" />
    </clipPath>
  </defs>
  <g
     clip-path="url(#cpMjcwLjYwfDQ2Mi41MnwxOS40MHwxNDIuNTM=)"
     id="g15447"
     transform="translate(-234.76316)">
    <circle
       cx="410.17999"
       cy="77.720001"
       r="1.95"
       style="fill:#31688e;stroke:#31688e;stroke-width:0.71"
       id="circle15422" />
    <circle
       cx="410.17999"
       cy="67.269997"
       r="1.95"
       style="fill:#440154;stroke:#440154;stroke-width:0.71"
       id="circle15423" />
    <circle
       cx="410.17999"
       cy="66.410004"
       r="1.95"
       style="fill:#31688e;stroke:#31688e;stroke-width:0.71"
       id="circle15424" />
    <circle
       cx="410.17999"
       cy="68.669998"
       r="1.95"
       style="fill:#440154;stroke:#440154;stroke-width:0.71"
       id="circle15425" />
    <circle
       cx="322.94"
       cy="52.43"
       r="1.95"
       style="fill:#440154;stroke:#440154;stroke-width:0.71"
       id="circle15426" />
    <circle
       cx="322.94"
       cy="94.050003"
       r="1.95"
       style="fill:#31688e;stroke:#31688e;stroke-width:0.71"
       id="circle15427" />
    <circle
       cx="322.94"
       cy="54.639999"
       r="1.95"
       style="fill:#440154;stroke:#440154;stroke-width:0.71"
       id="circle15428" />
    <circle
       cx="322.94"
       cy="95.43"
       r="1.95"
       style="fill:#31688e;stroke:#31688e;stroke-width:0.71"
       id="circle15429" />
    <polyline
       points="322.94,53.54 324.05,53.72 325.15,53.90 326.26,54.09 327.36,54.27 328.46,54.45 329.57,54.63 330.67,54.82 331.78,55.00 332.88,55.18 333.99,55.37 335.09,55.55 336.19,55.73 337.30,55.91 338.40,56.10 339.51,56.28 340.61,56.46 341.72,56.64 342.82,56.83 343.92,57.01 345.03,57.19 346.13,57.37 347.24,57.56 348.34,57.74 349.44,57.92 350.55,58.11 351.65,58.29 352.76,58.47 353.86,58.65 354.97,58.84 356.07,59.02 357.17,59.20 358.28,59.38 359.38,59.57 360.49,59.75 361.59,59.93 362.70,60.12 363.80,60.30 364.90,60.48 366.01,60.66 367.11,60.85 368.22,61.03 369.32,61.21 370.43,61.39 371.53,61.58 372.63,61.76 373.74,61.94 374.84,62.12 375.95,62.31 377.05,62.49 378.16,62.67 379.26,62.86 380.36,63.04 381.47,63.22 382.57,63.40 383.68,63.59 384.78,63.77 385.89,63.95 386.99,64.13 388.09,64.32 389.20,64.50 390.30,64.68 391.41,64.86 392.51,65.05 393.62,65.23 394.72,65.41 395.82,65.60 396.93,65.78 398.03,65.96 399.14,66.14 400.24,66.33 401.34,66.51 402.45,66.69 403.55,66.87 404.66,67.06 405.76,67.24 406.87,67.42 407.97,67.60 409.07,67.79 410.18,67.97 "
       style="stroke:#440154;stroke-width:2.13;stroke-linecap:butt"
       id="polyline15429" />
    <polyline
       points="322.94,94.74 324.05,94.45 325.15,94.17 326.26,93.88 327.36,93.59 328.46,93.31 329.57,93.02 330.67,92.73 331.78,92.44 332.88,92.16 333.99,91.87 335.09,91.58 336.19,91.30 337.30,91.01 338.40,90.72 339.51,90.44 340.61,90.15 341.72,89.86 342.82,89.57 343.92,89.29 345.03,89.00 346.13,88.71 347.24,88.43 348.34,88.14 349.44,87.85 350.55,87.57 351.65,87.28 352.76,86.99 353.86,86.70 354.97,86.42 356.07,86.13 357.17,85.84 358.28,85.56 359.38,85.27 360.49,84.98 361.59,84.70 362.70,84.41 363.80,84.12 364.90,83.83 366.01,83.55 367.11,83.26 368.22,82.97 369.32,82.69 370.43,82.40 371.53,82.11 372.63,81.82 373.74,81.54 374.84,81.25 375.95,80.96 377.05,80.68 378.16,80.39 379.26,80.10 380.36,79.82 381.47,79.53 382.57,79.24 383.68,78.95 384.78,78.67 385.89,78.38 386.99,78.09 388.09,77.81 389.20,77.52 390.30,77.23 391.41,76.95 392.51,76.66 393.62,76.37 394.72,76.08 395.82,75.80 396.93,75.51 398.03,75.22 399.14,74.94 400.24,74.65 401.34,74.36 402.45,74.08 403.55,73.79 404.66,73.50 405.76,73.21 406.87,72.93 407.97,72.64 409.07,72.35 410.18,72.07 "
       style="stroke:#31688e;stroke-width:2.13;stroke-linecap:butt"
       id="polyline15430" />
    <circle
       cx="322.94"
       cy="89.309998"
       r="1.95"
       style="fill:#000000;stroke-width:0.71"
       id="circle15430" />
    <circle
       cx="322.94"
       cy="94.589996"
       r="1.95"
       style="fill:#000000;stroke-width:0.71"
       id="circle15431" />
    <circle
       cx="322.94"
       cy="94.050003"
       r="1.95"
       style="fill:#000000;stroke-width:0.71"
       id="circle15432" />
    <circle
       cx="322.94"
       cy="32.720001"
       r="1.95"
       style="fill:#000000;stroke-width:0.71"
       id="circle15433" />
    <circle
       cx="322.94"
       cy="81.419998"
       r="1.95"
       style="fill:#000000;stroke-width:0.71"
       id="circle15434" />
    <circle
       cx="322.94"
       cy="94.160004"
       r="1.95"
       style="fill:#000000;stroke-width:0.71"
       id="circle15435" />
    <circle
       cx="322.94"
       cy="88.529999"
       r="1.95"
       style="fill:#000000;stroke-width:0.71"
       id="circle15436" />
    <circle
       cx="322.94"
       cy="95.43"
       r="1.95"
       style="fill:#000000;stroke-width:0.71"
       id="circle15437" />
    <line
       x1="322.94"
       y1="54.810001"
       x2="322.94"
       y2="42.23"
       style="stroke-width:1.07;stroke-linecap:butt"
       id="line15437" />
    <line
       x1="322.94"
       y1="64.550003"
       x2="322.94"
       y2="79.040001"
       style="stroke-width:1.07;stroke-linecap:butt"
       id="line15438" />
    <polygon
       points="290.23,64.55 355.66,64.55 355.66,54.81 290.23,54.81 "
       style="stroke-width:1.07;stroke-linecap:butt;stroke-linejoin:miter"
       id="polygon15438" />
    <line
       x1="290.23001"
       y1="58.790001"
       x2="355.66"
       y2="58.790001"
       style="stroke-width:2.13;stroke-linecap:butt;stroke-linejoin:miter"
       id="line15439" />
    <circle
       cx="410.17999"
       cy="86.230003"
       r="1.95"
       style="fill:#000000;stroke-width:0.71"
       id="circle15439" />
    <circle
       cx="410.17999"
       cy="49.169998"
       r="1.95"
       style="fill:#000000;stroke-width:0.71"
       id="circle15440" />
    <circle
       cx="410.17999"
       cy="51.389999"
       r="1.95"
       style="fill:#000000;stroke-width:0.71"
       id="circle15441" />
    <circle
       cx="410.17999"
       cy="50.43"
       r="1.95"
       style="fill:#000000;stroke-width:0.71"
       id="circle15442" />
    <circle
       cx="410.17999"
       cy="89.230003"
       r="1.95"
       style="fill:#000000;stroke-width:0.71"
       id="circle15443" />
    <circle
       cx="410.17999"
       cy="87.040001"
       r="1.95"
       style="fill:#000000;stroke-width:0.71"
       id="circle15444" />
    <circle
       cx="410.17999"
       cy="52"
       r="1.95"
       style="fill:#000000;stroke-width:0.71"
       id="circle15445" />
    <line
       x1="410.17999"
       y1="65.199997"
       x2="410.17999"
       y2="54.959999"
       style="stroke-width:1.07;stroke-linecap:butt"
       id="line15445" />
    <line
       x1="410.17999"
       y1="73.589996"
       x2="410.17999"
       y2="84.989998"
       style="stroke-width:1.07;stroke-linecap:butt"
       id="line15446" />
    <polygon
       points="377.47,73.59 442.89,73.59 442.89,65.2 377.47,65.2 "
       style="stroke-width:1.07;stroke-linecap:butt;stroke-linejoin:miter"
       id="polygon15446" />
    <line
       x1="377.47"
       y1="70.07"
       x2="442.89001"
       y2="70.07"
       style="stroke-width:2.13;stroke-linecap:butt;stroke-linejoin:miter"
       id="line15447" />
    <text
       x="322.94"
       y="34.169998"
       text-anchor="middle"
       style="font-size:25.61px;font-family:Arial"
       textLength="9.96"
       lengthAdjust="spacingAndGlyphs"
       id="text15447"
       transform="translate(0,3)">*</text>
  </g>
  <g
     clip-path="url(#cpMC4wMHw0NjguMDB8MC4wMHw1NzYuMDA=)"
     id="g15458"
     transform="translate(-234.76316)">
    <text
       x="265.67001"
       y="116.6"
       text-anchor="end"
       style="font-size:9px;font-family:Arial"
       textLength="10.01"
       lengthAdjust="spacingAndGlyphs"
       id="text15448">50</text>
    <text
       x="265.67001"
       y="87.139999"
       text-anchor="end"
       style="font-size:9px;font-family:Arial"
       textLength="15.01"
       lengthAdjust="spacingAndGlyphs"
       id="text15449">100</text>
    <text
       x="265.67001"
       y="57.68"
       text-anchor="end"
       style="font-size:9px;font-family:Arial"
       textLength="15.01"
       lengthAdjust="spacingAndGlyphs"
       id="text15450">150</text>
    <text
       x="265.67001"
       y="28.219999"
       text-anchor="end"
       style="font-size:9px;font-family:Arial"
       textLength="15.01"
       lengthAdjust="spacingAndGlyphs"
       id="text15451">200</text>
    <text
       x="322.94"
       y="153.92"
       text-anchor="middle"
       style="font-size:9px;font-family:Arial"
       textLength="20.02"
       lengthAdjust="spacingAndGlyphs"
       id="text15452">2023</text>
    <text
       x="322.94"
       y="163.64"
       text-anchor="middle"
       style="font-size:9px;font-family:Arial"
       textLength="56.509998"
       lengthAdjust="spacingAndGlyphs"
       id="text15453">Crawfordsville</text>
    <text
       x="322.94"
       y="173.36"
       text-anchor="middle"
       style="font-size:9px;font-family:Arial"
       textLength="16.51"
       lengthAdjust="spacingAndGlyphs"
       id="text15454">Low</text>
    <text
       x="410.17999"
       y="153.92"
       text-anchor="middle"
       style="font-size:9px;font-family:Arial"
       textLength="66.529999"
       lengthAdjust="spacingAndGlyphs"
       id="text15455">2022 Ames High</text>
    <text
       x="366.56"
       y="184.53999"
       text-anchor="middle"
       style="font-size:9px;font-family:Arial"
       textLength="50.52"
       lengthAdjust="spacingAndGlyphs"
       id="text15456">Environment</text>
    <text
       transform="rotate(-90,163.45,-82.49)"
       text-anchor="middle"
       style="font-size:9px;font-family:Arial"
       textLength="79.519997"
       lengthAdjust="spacingAndGlyphs"
       id="text15457">Yield (bushels/acre)</text>
    <text
       x="366.56"
       y="11.94"
       text-anchor="middle"
       style="font-size:9px;font-family:Arial"
       textLength="130.78"
       lengthAdjust="spacingAndGlyphs"
       id="text15458">Interaction Importance Score = 0</text>
  </g>
  <defs
     id="defs15458">
    <clipPath
       id="cpMjM0LjAwfDQ2OC4wMHwxOTIuMDB8Mzg0LjAw">
      <rect
         x="234"
         y="192"
         width="234"
         height="192"
         id="rect15458" />
    </clipPath>
  </defs>
  <g
     clip-path="url(#cpMjM0LjAwfDQ2OC4wMHwxOTIuMDB8Mzg0LjAw)"
     id="g15459"
     transform="translate(274.30148,-0.90293514)" />
  <g
     clip-path="url(#cpMC4wMHw0NjguMDB8MC4wMHw1NzYuMDA=)"
     id="g15460"
     transform="translate(274.30148,-0.90293514)" />
  <defs
     id="defs15460">
    <clipPath
       id="cpMjcwLjYwfDQ2Mi41MnwyMTEuNDB8MzM0LjUz">
      <rect
         x="270.60001"
         y="211.39999"
         width="191.92"
         height="123.13"
         id="rect15460" />
    </clipPath>
  </defs>
  <g
     clip-path="url(#cpMjcwLjYwfDQ2Mi41MnwyMTEuNDB8MzM0LjUz)"
     id="g15485"
     transform="translate(-6.5113558,-193.1841)">
    <circle
       cx="410.17999"
       cy="238.46001"
       r="1.95"
       style="fill:#31688e;stroke:#31688e;stroke-width:0.71"
       id="circle15460" />
    <circle
       cx="410.17999"
       cy="239.02"
       r="1.95"
       style="fill:#440154;stroke:#440154;stroke-width:0.71"
       id="circle15461" />
    <circle
       cx="410.17999"
       cy="230.75999"
       r="1.95"
       style="fill:#31688e;stroke:#31688e;stroke-width:0.71"
       id="circle15462" />
    <circle
       cx="410.17999"
       cy="239.03"
       r="1.95"
       style="fill:#440154;stroke:#440154;stroke-width:0.71"
       id="circle15463" />
    <circle
       cx="322.94"
       cy="244.42999"
       r="1.95"
       style="fill:#440154;stroke:#440154;stroke-width:0.71"
       id="circle15464" />
    <circle
       cx="322.94"
       cy="286.04999"
       r="1.95"
       style="fill:#31688e;stroke:#31688e;stroke-width:0.71"
       id="circle15465" />
    <circle
       cx="322.94"
       cy="246.64"
       r="1.95"
       style="fill:#440154;stroke:#440154;stroke-width:0.71"
       id="circle15466" />
    <circle
       cx="322.94"
       cy="287.42999"
       r="1.95"
       style="fill:#31688e;stroke:#31688e;stroke-width:0.71"
       id="circle15467" />
    <polyline
       points="322.94,245.54 324.05,245.46 325.15,245.37 326.26,245.29 327.36,245.21 328.46,245.13 329.57,245.04 330.67,244.96 331.78,244.88 332.88,244.80 333.99,244.71 335.09,244.63 336.19,244.55 337.30,244.47 338.40,244.38 339.51,244.30 340.61,244.22 341.72,244.14 342.82,244.05 343.92,243.97 345.03,243.89 346.13,243.81 347.24,243.72 348.34,243.64 349.44,243.56 350.55,243.48 351.65,243.40 352.76,243.31 353.86,243.23 354.97,243.15 356.07,243.07 357.17,242.98 358.28,242.90 359.38,242.82 360.49,242.74 361.59,242.65 362.70,242.57 363.80,242.49 364.90,242.41 366.01,242.32 367.11,242.24 368.22,242.16 369.32,242.08 370.43,241.99 371.53,241.91 372.63,241.83 373.74,241.75 374.84,241.66 375.95,241.58 377.05,241.50 378.16,241.42 379.26,241.33 380.36,241.25 381.47,241.17 382.57,241.09 383.68,241.00 384.78,240.92 385.89,240.84 386.99,240.76 388.09,240.67 389.20,240.59 390.30,240.51 391.41,240.43 392.51,240.34 393.62,240.26 394.72,240.18 395.82,240.10 396.93,240.01 398.03,239.93 399.14,239.85 400.24,239.77 401.34,239.69 402.45,239.60 403.55,239.52 404.66,239.44 405.76,239.36 406.87,239.27 407.97,239.19 409.07,239.11 410.18,239.03 "
       style="stroke:#440154;stroke-width:2.13;stroke-linecap:butt"
       id="polyline15467" />
    <polyline
       points="322.94,286.74 324.05,286.08 325.15,285.42 326.26,284.76 327.36,284.10 328.46,283.44 329.57,282.78 330.67,282.12 331.78,281.46 332.88,280.80 333.99,280.14 335.09,279.48 336.19,278.82 337.30,278.16 338.40,277.50 339.51,276.84 340.61,276.18 341.72,275.52 342.82,274.86 343.92,274.20 345.03,273.54 346.13,272.88 347.24,272.22 348.34,271.56 349.44,270.90 350.55,270.24 351.65,269.59 352.76,268.93 353.86,268.27 354.97,267.61 356.07,266.95 357.17,266.29 358.28,265.63 359.38,264.97 360.49,264.31 361.59,263.65 362.70,262.99 363.80,262.33 364.90,261.67 366.01,261.01 367.11,260.35 368.22,259.69 369.32,259.03 370.43,258.37 371.53,257.71 372.63,257.05 373.74,256.39 374.84,255.73 375.95,255.07 377.05,254.41 378.16,253.75 379.26,253.09 380.36,252.43 381.47,251.77 382.57,251.11 383.68,250.45 384.78,249.79 385.89,249.13 386.99,248.47 388.09,247.81 389.20,247.15 390.30,246.49 391.41,245.83 392.51,245.17 393.62,244.51 394.72,243.85 395.82,243.19 396.93,242.53 398.03,241.87 399.14,241.21 400.24,240.55 401.34,239.89 402.45,239.23 403.55,238.57 404.66,237.91 405.76,237.25 406.87,236.59 407.97,235.93 409.07,235.27 410.18,234.61 "
       style="stroke:#31688e;stroke-width:2.13;stroke-linecap:butt"
       id="polyline15468" />
    <circle
       cx="322.94"
       cy="281.31"
       r="1.95"
       style="fill:#000000;stroke-width:0.71"
       id="circle15468" />
    <circle
       cx="322.94"
       cy="286.59"
       r="1.95"
       style="fill:#000000;stroke-width:0.71"
       id="circle15469" />
    <circle
       cx="322.94"
       cy="286.04999"
       r="1.95"
       style="fill:#000000;stroke-width:0.71"
       id="circle15470" />
    <circle
       cx="322.94"
       cy="224.72"
       r="1.95"
       style="fill:#000000;stroke-width:0.71"
       id="circle15471" />
    <circle
       cx="322.94"
       cy="273.42001"
       r="1.95"
       style="fill:#000000;stroke-width:0.71"
       id="circle15472" />
    <circle
       cx="322.94"
       cy="286.16"
       r="1.95"
       style="fill:#000000;stroke-width:0.71"
       id="circle15473" />
    <circle
       cx="322.94"
       cy="280.53"
       r="1.95"
       style="fill:#000000;stroke-width:0.71"
       id="circle15474" />
    <circle
       cx="322.94"
       cy="287.42999"
       r="1.95"
       style="fill:#000000;stroke-width:0.71"
       id="circle15475" />
    <line
       x1="322.94"
       y1="246.81"
       x2="322.94"
       y2="234.23"
       style="stroke-width:1.07;stroke-linecap:butt"
       id="line15475" />
    <line
       x1="322.94"
       y1="256.54999"
       x2="322.94"
       y2="271.04001"
       style="stroke-width:1.07;stroke-linecap:butt"
       id="line15476" />
    <polygon
       points="355.66,246.81 290.23,246.81 290.23,256.55 355.66,256.55 "
       style="stroke-width:1.07;stroke-linecap:butt;stroke-linejoin:miter"
       id="polygon15476" />
    <line
       x1="290.23001"
       y1="250.78999"
       x2="355.66"
       y2="250.78999"
       style="stroke-width:2.13;stroke-linecap:butt;stroke-linejoin:miter"
       id="line15477" />
    <circle
       cx="410.17999"
       cy="258.94"
       r="1.95"
       style="fill:#000000;stroke-width:0.71"
       id="circle15477" />
    <circle
       cx="410.17999"
       cy="218.28"
       r="1.95"
       style="fill:#000000;stroke-width:0.71"
       id="circle15478" />
    <circle
       cx="410.17999"
       cy="259.23001"
       r="1.95"
       style="fill:#000000;stroke-width:0.71"
       id="circle15479" />
    <circle
       cx="410.17999"
       cy="255.8"
       r="1.95"
       style="fill:#000000;stroke-width:0.71"
       id="circle15480" />
    <circle
       cx="410.17999"
       cy="258.20001"
       r="1.95"
       style="fill:#000000;stroke-width:0.71"
       id="circle15481" />
    <circle
       cx="410.17999"
       cy="264.04001"
       r="1.95"
       style="fill:#000000;stroke-width:0.71"
       id="circle15482" />
    <circle
       cx="410.17999"
       cy="260.01999"
       r="1.95"
       style="fill:#000000;stroke-width:0.71"
       id="circle15483" />
    <line
       x1="410.17999"
       y1="232.5"
       x2="410.17999"
       y2="224.21001"
       style="stroke-width:1.07;stroke-linecap:butt"
       id="line15483" />
    <line
       x1="410.17999"
       y1="241.81"
       x2="410.17999"
       y2="255.37"
       style="stroke-width:1.07;stroke-linecap:butt"
       id="line15484" />
    <polygon
       points="442.89,232.5 377.47,232.5 377.47,241.81 442.89,241.81 "
       style="stroke-width:1.07;stroke-linecap:butt;stroke-linejoin:miter"
       id="polygon15484" />
    <line
       x1="377.47"
       y1="237.25999"
       x2="442.89001"
       y2="237.25999"
       style="stroke-width:2.13;stroke-linecap:butt;stroke-linejoin:miter"
       id="line15485" />
    <text
       x="322.94"
       y="226.17"
       text-anchor="middle"
       style="font-size:25.61px;font-family:Arial"
       textLength="9.96"
       lengthAdjust="spacingAndGlyphs"
       id="text15485"
       transform="translate(0,4.5)">*</text>
  </g>
  <g
     clip-path="url(#cpMC4wMHw0NjguMDB8MC4wMHw1NzYuMDA=)"
     id="g15497"
     transform="translate(-6.5113558,-193.1841)">
    <text
       x="265.67001"
       y="308.60001"
       text-anchor="end"
       style="font-size:9px;font-family:Arial"
       textLength="10.01"
       lengthAdjust="spacingAndGlyphs"
       id="text15486">50</text>
    <text
       x="265.67001"
       y="279.14001"
       text-anchor="end"
       style="font-size:9px;font-family:Arial"
       textLength="15.01"
       lengthAdjust="spacingAndGlyphs"
       id="text15487">100</text>
    <text
       x="265.67001"
       y="249.67999"
       text-anchor="end"
       style="font-size:9px;font-family:Arial"
       textLength="15.01"
       lengthAdjust="spacingAndGlyphs"
       id="text15488">150</text>
    <text
       x="265.67001"
       y="220.22"
       text-anchor="end"
       style="font-size:9px;font-family:Arial"
       textLength="15.01"
       lengthAdjust="spacingAndGlyphs"
       id="text15489">200</text>
    <text
       x="322.94"
       y="345.92001"
       text-anchor="middle"
       style="font-size:9px;font-family:Arial"
       textLength="20.02"
       lengthAdjust="spacingAndGlyphs"
       id="text15490">2023</text>
    <text
       x="322.94"
       y="355.64001"
       text-anchor="middle"
       style="font-size:9px;font-family:Arial"
       textLength="56.509998"
       lengthAdjust="spacingAndGlyphs"
       id="text15491">Crawfordsville</text>
    <text
       x="322.94"
       y="365.35999"
       text-anchor="middle"
       style="font-size:9px;font-family:Arial"
       textLength="16.51"
       lengthAdjust="spacingAndGlyphs"
       id="text15492">Low</text>
    <text
       x="410.17999"
       y="345.92001"
       text-anchor="middle"
       style="font-size:9px;font-family:Arial"
       textLength="44.52"
       lengthAdjust="spacingAndGlyphs"
       id="text15493">2022 North</text>
    <text
       x="410.17999"
       y="355.64001"
       text-anchor="middle"
       style="font-size:9px;font-family:Arial"
       textLength="52.02"
       lengthAdjust="spacingAndGlyphs"
       id="text15494">Platte LI Low</text>
    <text
       x="366.56"
       y="376.54001"
       text-anchor="middle"
       style="font-size:9px;font-family:Arial"
       textLength="50.52"
       lengthAdjust="spacingAndGlyphs"
       id="text15495">Environment</text>
    <text
       transform="rotate(-90,259.45,13.51)"
       text-anchor="middle"
       style="font-size:9px;font-family:Arial"
       textLength="79.519997"
       lengthAdjust="spacingAndGlyphs"
       id="text15496">Yield (bushels/acre)</text>
    <text
       x="366.56"
       y="203.94"
       text-anchor="middle"
       style="font-size:9px;font-family:Arial"
       textLength="130.78"
       lengthAdjust="spacingAndGlyphs"
       id="text15497">Interaction Importance Score = 1</text>
  </g>
  <defs
     id="defs15497">
    <clipPath
       id="cpMjM0LjAwfDQ2OC4wMHwzODQuMDB8NTc2LjAw">
      <rect
         x="234"
         y="384"
         width="234"
         height="192"
         id="rect15497" />
    </clipPath>
  </defs>
  <g
     clip-path="url(#cpMjM0LjAwfDQ2OC4wMHwzODQuMDB8NTc2LjAw)"
     id="g15498"
     transform="translate(274.30148,-0.90293514)" />
  <g
     clip-path="url(#cpMC4wMHw0NjguMDB8MC4wMHw1NzYuMDA=)"
     id="g15499"
     transform="translate(274.30148,-0.90293514)" />
  <defs
     id="defs15499">
    <clipPath
       id="cpMjcwLjYwfDQ2Mi41Mnw0MDMuNDB8NDg3LjMz">
      <rect
         x="270.60001"
         y="403.39999"
         width="191.92"
         height="83.93"
         id="rect15499" />
    </clipPath>
  </defs>
  <g
     clip-path="url(#cpMjcwLjYwfDQ2Mi41Mnw0MDMuNDB8NDg3LjMz)"
     id="g15525"
     transform="translate(232.76646,-386.70342)">
    <circle
       cx="410.17999"
       cy="468.19"
       r="1.95"
       style="fill:#31688e;stroke:#31688e;stroke-width:0.71"
       id="circle15499" />
    <circle
       cx="410.17999"
       cy="480.35001"
       r="1.95"
       style="fill:#440154;stroke:#440154;stroke-width:0.71"
       id="circle15500" />
    <circle
       cx="410.17999"
       cy="478.47"
       r="1.95"
       style="fill:#440154;stroke:#440154;stroke-width:0.71"
       id="circle15501" />
    <circle
       cx="410.17999"
       cy="472.98999"
       r="1.95"
       style="fill:#31688e;stroke:#31688e;stroke-width:0.71"
       id="circle15502" />
    <circle
       cx="322.94"
       cy="425.92001"
       r="1.95"
       style="fill:#440154;stroke:#440154;stroke-width:0.71"
       id="circle15503" />
    <circle
       cx="322.94"
       cy="454.29001"
       r="1.95"
       style="fill:#31688e;stroke:#31688e;stroke-width:0.71"
       id="circle15504" />
    <circle
       cx="322.94"
       cy="427.42001"
       r="1.95"
       style="fill:#440154;stroke:#440154;stroke-width:0.71"
       id="circle15505" />
    <circle
       cx="322.94"
       cy="455.23001"
       r="1.95"
       style="fill:#31688e;stroke:#31688e;stroke-width:0.71"
       id="circle15506" />
    <polyline
       points="322.94,426.67 324.05,427.34 325.15,428.01 326.26,428.67 327.36,429.34 328.46,430.01 329.57,430.68 330.67,431.34 331.78,432.01 332.88,432.68 333.99,433.35 335.09,434.01 336.19,434.68 337.30,435.35 338.40,436.02 339.51,436.68 340.61,437.35 341.72,438.02 342.82,438.69 343.92,439.35 345.03,440.02 346.13,440.69 347.24,441.36 348.34,442.02 349.44,442.69 350.55,443.36 351.65,444.03 352.76,444.69 353.86,445.36 354.97,446.03 356.07,446.70 357.17,447.36 358.28,448.03 359.38,448.70 360.49,449.37 361.59,450.03 362.70,450.70 363.80,451.37 364.90,452.04 366.01,452.70 367.11,453.37 368.22,454.04 369.32,454.71 370.43,455.38 371.53,456.04 372.63,456.71 373.74,457.38 374.84,458.05 375.95,458.71 377.05,459.38 378.16,460.05 379.26,460.72 380.36,461.38 381.47,462.05 382.57,462.72 383.68,463.39 384.78,464.05 385.89,464.72 386.99,465.39 388.09,466.06 389.20,466.72 390.30,467.39 391.41,468.06 392.51,468.73 393.62,469.39 394.72,470.06 395.82,470.73 396.93,471.40 398.03,472.06 399.14,472.73 400.24,473.40 401.34,474.07 402.45,474.73 403.55,475.40 404.66,476.07 405.76,476.74 406.87,477.40 407.97,478.07 409.07,478.74 410.18,479.41 "
       style="stroke:#440154;stroke-width:2.13;stroke-linecap:butt"
       id="polyline15506" />
    <polyline
       points="322.94,454.76 324.05,454.96 325.15,455.16 326.26,455.36 327.36,455.56 328.46,455.76 329.57,455.96 330.67,456.16 331.78,456.36 332.88,456.56 333.99,456.76 335.09,456.96 336.19,457.16 337.30,457.36 338.40,457.56 339.51,457.76 340.61,457.96 341.72,458.16 342.82,458.36 343.92,458.56 345.03,458.76 346.13,458.96 347.24,459.17 348.34,459.37 349.44,459.57 350.55,459.77 351.65,459.97 352.76,460.17 353.86,460.37 354.97,460.57 356.07,460.77 357.17,460.97 358.28,461.17 359.38,461.37 360.49,461.57 361.59,461.77 362.70,461.97 363.80,462.17 364.90,462.37 366.01,462.57 367.11,462.77 368.22,462.97 369.32,463.17 370.43,463.37 371.53,463.57 372.63,463.77 373.74,463.97 374.84,464.18 375.95,464.38 377.05,464.58 378.16,464.78 379.26,464.98 380.36,465.18 381.47,465.38 382.57,465.58 383.68,465.78 384.78,465.98 385.89,466.18 386.99,466.38 388.09,466.58 389.20,466.78 390.30,466.98 391.41,467.18 392.51,467.38 393.62,467.58 394.72,467.78 395.82,467.98 396.93,468.18 398.03,468.38 399.14,468.58 400.24,468.78 401.34,468.98 402.45,469.19 403.55,469.39 404.66,469.59 405.76,469.79 406.87,469.99 407.97,470.19 409.07,470.39 410.18,470.59 "
       style="stroke:#31688e;stroke-width:2.13;stroke-linecap:butt"
       id="polyline15507" />
    <circle
       cx="322.94"
       cy="451.04999"
       r="1.95"
       style="fill:#000000;stroke-width:0.71"
       id="circle15507" />
    <circle
       cx="322.94"
       cy="454.64999"
       r="1.95"
       style="fill:#000000;stroke-width:0.71"
       id="circle15508" />
    <circle
       cx="322.94"
       cy="454.29001"
       r="1.95"
       style="fill:#000000;stroke-width:0.71"
       id="circle15509" />
    <circle
       cx="322.94"
       cy="412.48001"
       r="1.95"
       style="fill:#000000;stroke-width:0.71"
       id="circle15510" />
    <circle
       cx="322.94"
       cy="445.67999"
       r="1.95"
       style="fill:#000000;stroke-width:0.71"
       id="circle15511" />
    <circle
       cx="322.94"
       cy="454.35999"
       r="1.95"
       style="fill:#000000;stroke-width:0.71"
       id="circle15512" />
    <circle
       cx="322.94"
       cy="450.51999"
       r="1.95"
       style="fill:#000000;stroke-width:0.71"
       id="circle15513" />
    <circle
       cx="322.94"
       cy="455.23001"
       r="1.95"
       style="fill:#000000;stroke-width:0.71"
       id="circle15514" />
    <line
       x1="322.94"
       y1="427.54001"
       x2="322.94"
       y2="418.95999"
       style="stroke-width:1.07;stroke-linecap:butt"
       id="line15514" />
    <line
       x1="322.94"
       y1="434.17999"
       x2="322.94"
       y2="444.06"
       style="stroke-width:1.07;stroke-linecap:butt"
       id="line15515" />
    <polygon
       points="290.23,427.54 290.23,434.18 355.66,434.18 355.66,427.54 "
       style="stroke-width:1.07;stroke-linecap:butt;stroke-linejoin:miter"
       id="polygon15515" />
    <line
       x1="290.23001"
       y1="430.25"
       x2="355.66"
       y2="430.25"
       style="stroke-width:2.13;stroke-linecap:butt;stroke-linejoin:miter"
       id="line15516" />
    <circle
       cx="410.17999"
       cy="468.19"
       r="1.95"
       style="fill:#000000;stroke-width:0.71"
       id="circle15516" />
    <circle
       cx="410.17999"
       cy="467.79999"
       r="1.95"
       style="fill:#000000;stroke-width:0.71"
       id="circle15517" />
    <circle
       cx="410.17999"
       cy="466.59"
       r="1.95"
       style="fill:#000000;stroke-width:0.71"
       id="circle15518" />
    <circle
       cx="410.17999"
       cy="469.26999"
       r="1.95"
       style="fill:#000000;stroke-width:0.71"
       id="circle15519" />
    <circle
       cx="410.17999"
       cy="469.23999"
       r="1.95"
       style="fill:#000000;stroke-width:0.71"
       id="circle15520" />
    <circle
       cx="410.17999"
       cy="464.04999"
       r="1.95"
       style="fill:#000000;stroke-width:0.71"
       id="circle15521" />
    <circle
       cx="410.17999"
       cy="468.44"
       r="1.95"
       style="fill:#000000;stroke-width:0.71"
       id="circle15522" />
    <line
       x1="410.17999"
       y1="474.87"
       x2="410.17999"
       y2="470.12"
       style="stroke-width:1.07;stroke-linecap:butt"
       id="line15522" />
    <line
       x1="410.17999"
       y1="478.45001"
       x2="410.17999"
       y2="481.69"
       style="stroke-width:1.07;stroke-linecap:butt"
       id="line15523" />
    <polygon
       points="377.47,474.87 377.47,478.45 442.89,478.45 442.89,474.87 "
       style="stroke-width:1.07;stroke-linecap:butt;stroke-linejoin:miter"
       id="polygon15523" />
    <line
       x1="377.47"
       y1="476.82001"
       x2="442.89001"
       y2="476.82001"
       style="stroke-width:2.13;stroke-linecap:butt;stroke-linejoin:miter"
       id="line15524" />
    <text
       x="410.17999"
       y="416.39001"
       text-anchor="middle"
       style="font-size:25.61px;font-family:Arial"
       textLength="9.96"
       lengthAdjust="spacingAndGlyphs"
       id="text15525"
       transform="translate(0,6)">*</text>
    <text
       x="322.94"
       y="416.39001"
       text-anchor="middle"
       style="font-size:25.61px;font-family:Arial"
       textLength="9.96"
       lengthAdjust="spacingAndGlyphs"
       id="text15524"
       transform="translate(0,6)">*</text>
  </g>
  <g
     clip-path="url(#cpMC4wMHw0NjguMDB8MC4wMHw1NzYuMDA=)"
     id="g15541"
     transform="translate(232.76646,-386.70342)">
    <text
       x="265.67001"
       y="470.67999"
       text-anchor="end"
       style="font-size:9px;font-family:Arial"
       textLength="10.01"
       lengthAdjust="spacingAndGlyphs"
       id="text15526">50</text>
    <text
       x="265.67001"
       y="450.60001"
       text-anchor="end"
       style="font-size:9px;font-family:Arial"
       textLength="15.01"
       lengthAdjust="spacingAndGlyphs"
       id="text15527">100</text>
    <text
       x="265.67001"
       y="430.51999"
       text-anchor="end"
       style="font-size:9px;font-family:Arial"
       textLength="15.01"
       lengthAdjust="spacingAndGlyphs"
       id="text15528">150</text>
    <text
       x="265.67001"
       y="410.44"
       text-anchor="end"
       style="font-size:9px;font-family:Arial"
       textLength="15.01"
       lengthAdjust="spacingAndGlyphs"
       id="text15529">200</text>
    <text
       x="322.94"
       y="498.72"
       text-anchor="middle"
       style="font-size:9px;font-family:Arial"
       textLength="20.02"
       lengthAdjust="spacingAndGlyphs"
       id="text15530">2023</text>
    <text
       x="322.94"
       y="508.44"
       text-anchor="middle"
       style="font-size:9px;font-family:Arial"
       textLength="56.509998"
       lengthAdjust="spacingAndGlyphs"
       id="text15531">Crawfordsville</text>
    <text
       x="322.94"
       y="518.15997"
       text-anchor="middle"
       style="font-size:9px;font-family:Arial"
       textLength="16.51"
       lengthAdjust="spacingAndGlyphs"
       id="text15532">Low</text>
    <text
       x="410.17999"
       y="498.72"
       text-anchor="middle"
       style="font-size:9px;font-family:Arial"
       textLength="51.029999"
       lengthAdjust="spacingAndGlyphs"
       id="text15533">2022 Lincoln</text>
    <text
       x="410.17999"
       y="508.44"
       text-anchor="middle"
       style="font-size:9px;font-family:Arial"
       textLength="18.51"
       lengthAdjust="spacingAndGlyphs"
       id="text15534">High</text>
    <text
       x="366.56"
       y="529.34003"
       text-anchor="middle"
       style="font-size:9px;font-family:Arial"
       textLength="50.52"
       lengthAdjust="spacingAndGlyphs"
       id="text15535">Environment</text>
    <text
       transform="rotate(-90,345.65,99.71)"
       text-anchor="middle"
       style="font-size:9px;font-family:Arial"
       textLength="79.519997"
       lengthAdjust="spacingAndGlyphs"
       id="text15536">Yield (bushels/acre)</text>
    <text
       x="269.20001"
       y="559.63"
       style="font-size:9px;font-family:Arial"
       textLength="39.02"
       lengthAdjust="spacingAndGlyphs"
       id="text15537">Genotype</text>
    <circle
       cx="322.35001"
       cy="556.40002"
       r="1.95"
       style="fill:#440154;stroke:#440154;stroke-width:0.71"
       id="circle15537" />
    <line
       x1="315.44"
       y1="556.40002"
       x2="329.26001"
       y2="556.40002"
       style="stroke:#440154;stroke-width:2.13;stroke-linecap:butt"
       id="line15537" />
    <circle
       cx="398.04999"
       cy="556.40002"
       r="1.95"
       style="fill:#31688e;stroke:#31688e;stroke-width:0.71"
       id="circle15538" />
    <line
       x1="391.14001"
       y1="556.40002"
       x2="404.97"
       y2="556.40002"
       style="stroke:#31688e;stroke-width:2.13;stroke-linecap:butt"
       id="line15538" />
    <text
       x="336.47"
       y="558.97998"
       style="font-size:7.2px;font-family:Arial"
       textLength="48.73"
       lengthAdjust="spacingAndGlyphs"
       id="text15538">PHK56 X 3IIH6</text>
    <text
       x="412.17001"
       y="558.97998"
       style="font-size:7.2px;font-family:Arial"
       textLength="53.130001"
       lengthAdjust="spacingAndGlyphs"
       id="text15539">PHP02 X PHJ89</text>
    <text
       x="366.56"
       y="395.94"
       text-anchor="middle"
       style="font-size:9px;font-family:Arial"
       textLength="130.78"
       lengthAdjust="spacingAndGlyphs"
       id="text15540">Interaction Importance Score = 2</text>
  </g>
</svg>
